HIERARCHY
ROOT root
{
	OFFSET	0	13.1	24.9
	CHANNELS 6  Xposition Yposition Zposition Xrotation Yrotation Zrotation
	JOINT spine_1
	{
		OFFSET	0	9.99999	0
		CHANNELS 3  Xrotation Yrotation Zrotation
		JOINT spine_2
		{
			OFFSET	0	112	-10
			CHANNELS 3  Xrotation Yrotation Zrotation
			JOINT spine_3
			{
				OFFSET	0	206.5	19.3
				CHANNELS 3  Xrotation Yrotation Zrotation
				JOINT spine_4
				{
					OFFSET	0	110.4	14.6
					CHANNELS 3  Xrotation Yrotation Zrotation
					JOINT neck_1
					{
						OFFSET	0	71.8	-50.3
						CHANNELS 3  Xrotation Yrotation Zrotation
						JOINT neck_2
						{
							OFFSET	0	86.2	-25.8
							CHANNELS 3  Xrotation Yrotation Zrotation
							JOINT head_ee
							{
								OFFSET	0	179.8	-8.7
								CHANNELS 3  Xrotation Yrotation Zrotation
								End Site
								{
									OFFSET	1	0	0
								}
							}
						}
					}
					JOINT left_clavicle
					{
						OFFSET	-43.2	22.4	-70.8
						CHANNELS 3  Xrotation Yrotation Zrotation
						JOINT left_shoulder
						{
							OFFSET	-93.9	-5.79999	48.7
							CHANNELS 3  Xrotation Yrotation Zrotation
							JOINT left_elbow
							{
								OFFSET	-291.4	-30.8	15.2
								CHANNELS 3  Xrotation Yrotation Zrotation
								JOINT left_lowarm_twist
								{
									OFFSET	-110.7	-3.89999	13.6
									CHANNELS 3  Xrotation Yrotation Zrotation
									JOINT left_hand
									{
										OFFSET	-110.7	-3.89999	13.6
										CHANNELS 3  Xrotation Yrotation Zrotation
										JOINT left_ee
										{
											OFFSET	-80.8	-5.10001	12.1
											CHANNELS 3  Xrotation Yrotation Zrotation
											End Site
											{
												OFFSET	1	0	0
											}
										}
									}
								}
							}
						}
					}
					JOINT right_clavicle
					{
						OFFSET	43.2	22.4	-70.8
						CHANNELS 3  Xrotation Yrotation Zrotation
						JOINT right_shoulder
						{
							OFFSET	93.9	-5.79999	48.7
							CHANNELS 3  Xrotation Yrotation Zrotation
							JOINT right_elbow
							{
								OFFSET	291.4	-30.8	15.2
								CHANNELS 3  Xrotation Yrotation Zrotation
								JOINT right_lowarm_twist
								{
									OFFSET	110.7	-3.89999	13.6
									CHANNELS 3  Xrotation Yrotation Zrotation
									JOINT right_hand
									{
										OFFSET	110.7	-3.89999	13.6
										CHANNELS 3  Xrotation Yrotation Zrotation
										JOINT right_ee
										{
											OFFSET	80.8	-5.10001	12.1
											CHANNELS 3  Xrotation Yrotation Zrotation
											End Site
											{
												OFFSET	1	0	0
											}
										}
									}
								}
							}
						}
					}
				}
			}
		}
	}
	JOINT left_hip
	{
		OFFSET	-82.8	-127.5	0.300001
		CHANNELS 3  Xrotation Yrotation Zrotation
		JOINT left_knee
		{
			OFFSET	-28.2	-396.7	2.2
			CHANNELS 3  Xrotation Yrotation Zrotation
			JOINT left_ankle
			{
				OFFSET	-11.7	-411.3	35.4
				CHANNELS 3  Xrotation Yrotation Zrotation
				JOINT left_toes
				{
					OFFSET	0	-60	-88.6
					CHANNELS 3  Xrotation Yrotation Zrotation
					JOINT left_foot_ee
					{
						OFFSET	-22.5	-16.5	-42.2
						CHANNELS 3  Xrotation Yrotation Zrotation
						End Site
						{
							OFFSET	1	0	0
						}
					}
				}
			}
		}
	}
	JOINT right_hip
	{
		OFFSET	82.8	-127.5	0.300001
		CHANNELS 3  Xrotation Yrotation Zrotation
		JOINT right_knee
		{
			OFFSET	28.2	-396.7	2.2
			CHANNELS 3  Xrotation Yrotation Zrotation
			JOINT right_ankle
			{
				OFFSET	11.7	-411.3	35.4
				CHANNELS 3  Xrotation Yrotation Zrotation
				JOINT right_toes
				{
					OFFSET	0	-60	-88.6
					CHANNELS 3  Xrotation Yrotation Zrotation
					JOINT right_foot_ee
					{
						OFFSET	22.5	-16.5	-42.2
						CHANNELS 3  Xrotation Yrotation Zrotation
						End Site
						{
							OFFSET	1	0	0
						}
					}
				}
			}
		}
	}
}
MOTION
Frames: 7
Frame Time: 0.02
1039.1639054 746.37 -1500.45406406 12.6958923139 61.7051923401 -11.2669641788 -2.37129 0.091252 -0.306739 -2.37124 0.110586 -0.300311 -2.37181 0.182277 -0.263042 -2.37188 0.138447 -0.288528 -19.8371 16.5483 14.246 -20.1062 24.7339 20.0889 -0.0 0.0 -0.0 3.01247 25.1117 6.88121 -15.2852 -16.0294 68.8044 0.43753 -12.2293 0.046872 -22.2225 -1.28791 2.51493 0.865446 13.3864 10.9932 -0.0 0.0 -0.0 12.0506 26.9223 -23.3892 -18.0301 52.4175 -35.891 0.813488 21.9482 -0.157747 2.43803 -0.0794982 0.301226 2.73673 -16.0678 -24.1871 0.0 0.0 0.0 14.4459 11.2537 -5.88519 -62.181 -2.44004 8.76125 -17.3886 -8.86497 2.73908 -17.8153 0.0 0.0 -0.0 0.0 -0.0 13.37 26.0123 -10.1619 -21.1612 -0.280029 -3.21686 -5.18782 21.4487 -0.886677 -15.4382 0.0 0.0 0.0 0.0 0.0 
1018.45596511 744.716 -1503.34881157 14.6236216697 60.4068714031 -13.1231249508 -2.46512 0.293422 -0.302622 -2.46512 0.312084 -0.283338 -2.46675 0.373427 -0.195521 -2.46664 0.337862 -0.252043 -20.1001 16.3825 14.3071 -20.3618 24.454 20.142 -0.0 0.0 -0.0 3.1699 24.8365 7.08741 -17.8881 -14.6807 68.6062 0.439994 -12.2961 0.0473954 -22.1632 -1.2832 2.50896 0.817295 14.3718 11.0451 -0.0 0.0 -0.0 12.0722 27.6115 -23.3542 -17.6006 53.4304 -34.4969 0.889788 23.7864 -0.187401 1.54244 -0.0517869 0.190189 2.72208 -17.0068 -24.3547 0.0 0.0 0.0 18.2833 7.81358 -6.98509 -58.9277 -2.08532 8.40625 -15.4415 -8.18384 2.4202 -19.3599 0.0 0.0 -0.0 0.0 -0.0 10.6091 23.2899 -9.10124 -22.1144 -0.264529 -3.3623 -4.09129 21.0242 -0.694631 -15.4611 0.0 0.0 0.0 0.0 0.0 
997.489105793 745.347 -1503.03181308 15.595624748 61.4706072272 -14.4291814666 -2.42051 0.296722 -0.236498 -2.42054 0.31117 -0.217137 -2.4218 0.355752 -0.131969 -2.42167 0.330445 -0.186498 -20.3872 16.078 13.9531 -20.6752 24.1156 19.7717 -0.0 0.0 -0.0 3.19964 24.5137 7.12315 -19.6918 -13.8231 68.9317 0.438221 -12.248 0.0470183 -21.7795 -1.25297 2.47021 0.811289 15.3716 11.3685 -0.0 0.0 -0.0 12.0949 27.446 -23.4265 -17.2454 53.5611 -32.9395 0.946966 25.1308 -0.211076 1.07972 -0.03679 0.132991 2.58878 -17.587 -23.6155 0.0 0.0 0.0 20.6914 5.83378 -6.88009 -56.6188 -1.84615 8.1425 -15.953 -8.19009 2.50143 -21.1373 0.0 0.0 -0.0 0.0 -0.0 9.03421 22.9768 -8.125 -23.2424 -0.243064 -3.53405 -3.15477 21.7454 -0.538352 -15.3854 0.0 0.0 0.0 0.0 0.0 
980.764471849 743.861 -1500.43505702 14.6154996813 63.073332447 -13.8741991648 -2.1439 0.0466775 -0.128499 -2.14389 0.0547596 -0.125268 -2.14401 0.0839603 -0.107895 -2.14402 0.0658665 -0.119801 -20.9914 14.8316 10.8354 -21.5061 23.359 16.5947 -0.0 0.0 -0.0 3.11066 23.4091 6.98403 -22.5531 -13.0373 69.1227 0.586601 -16.2032 0.0835033 -20.0442 -1.11948 2.29248 0.814834 15.2841 11.3595 -0.0 0.0 -0.0 11.8798 25.7237 -23.1377 -16.6023 53.9091 -32.2074 1.05219 27.5289 -0.257757 1.23155 -0.0417617 0.151745 2.27535 -13.6489 -20.3179 0.0 0.0 0.0 21.9979 7.93746 -8.59727 -54.0792 -1.59569 7.8417 -14.5206 -7.71262 2.2685 -23.2208 0.0 0.0 -0.0 0.0 -0.0 7.79096 26.5738 -7.59476 -21.7526 -0.270698 -3.30712 -0.306649 17.2601 -0.0498332 -13.4797 0.0 0.0 0.0 0.0 0.0 
964.549053003 741.652 -1503.16372045 15.2129780797 64.4789420824 -14.4855375771 -1.87328 -0.109691 -0.119548 -1.87328 -0.101861 -0.126286 -1.87304 -0.0682697 -0.147184 -1.87306 -0.0906579 -0.134555 -21.7132 14.3896 10.8387 -22.218 22.6444 16.5735 -0.0 0.0 -0.0 2.96999 23.8096 6.79831 -23.6861 -12.9641 68.8859 0.566595 -15.6782 0.0780087 -18.1775 -0.982 2.09693 1.61269 12.8683 15.6527 -0.0 0.0 -0.0 11.9303 25.3609 -23.2928 -16.0172 53.8429 -31.7148 1.02637 26.9496 -0.245938 -0.501057 0.0179237 -0.0614788 2.01601 -15.6117 -19.2115 0.0 0.0 0.0 22.1809 8.23335 -8.10948 -51.8359 -1.3858 7.56711 -10.2071 -5.53623 1.57034 -22.953 0.0 0.0 -0.0 0.0 -0.0 7.74998 25.8451 -7.54668 -23.7267 -0.232808 -3.60767 0.321877 18.4612 0.0527611 -13.1392 0.0 0.0 0.0 0.0 0.0 
952.162481263 742.674 -1502.69231279 15.0809426824 64.7936505792 -14.8849474361 -1.66748 -0.0300485 -0.197959 -1.66745 -0.017391 -0.19947 -1.66737 0.0306915 -0.19786 -1.66743 -0.000941933 -0.200224 -23.9089 14.1922 12.9011 -24.3253 21.7838 18.8937 -0.0 0.0 -0.0 2.99326 23.2261 6.81768 -24.6516 -12.1476 69.2452 0.557056 -15.427 0.075451 -20.9954 -1.19198 2.3904 1.07804 18.1239 14.0055 -0.0 0.0 -0.0 12.8196 22.4579 -25.6276 -14.4553 52.3969 -30.321 1.16836 30.0601 -0.313729 -0.86236 0.0311817 -0.105713 1.79747 -10.1151 -15.9191 0.0 0.0 0.0 21.4274 5.67593 -6.59815 -34.6407 -0.161472 5.23368 -12.9803 -5.30208 2.00172 -29.4907 0.0 0.0 -0.0 0.0 -0.0 6.41243 25.6386 -6.91499 -23.1265 -0.245424 -3.51643 3.31727 17.2257 0.533261 -15.1929 0.0 0.0 0.0 0.0 0.0 
934.820821047 736.147 -1496.94833341 15.3972157443 66.1865026288 -15.4035995802 -1.4727 0.00826437 -0.20033 -1.47268 0.0209952 -0.199399 -1.47273 0.0673116 -0.188864 -1.47278 0.0366393 -0.197125 -25.0399 13.3611 12.384 -25.4605 20.6235 18.2923 -0.0 0.0 -0.0 2.84127 23.1087 6.60373 -26.1658 -12.1067 69.0406 0.621834 -17.121 0.0936059 -20.934 -1.18725 2.38411 1.06295 19.5375 14.3833 -0.0 0.0 -0.0 12.5651 22.2307 -25.0587 -11.0891 51.715 -32.1501 1.2302 31.3571 -0.34531 -2.6084 0.0991766 -0.318276 1.03494 -10.8105 -11.1403 0.0 0.0 0.0 20.772 6.06867 -7.1635 -25.4757 0.190603 3.87274 -17.2245 -4.69371 2.65868 -32.6157 0.0 0.0 -0.0 0.0 -0.0 5.82937 25.1103 -6.13328 -24.9953 -0.203003 -3.80005 7.71688 15.2562 1.20316 -16.3723 0.0 0.0 0.0 0.0 0.0 
